<svg width="110" height="18" viewBox="0 0 110 18" fill="none" xmlns="http://www.w3.org/2000/svg">
<path d="M0.367249 14L3.14717 0.941463H7.5561C8.61258 0.941463 9.39757 1.17755 9.91106 1.64972C10.4246 2.11599 10.6813 2.73867 10.6813 3.51776C10.6813 3.98403 10.6075 4.45621 10.46 4.93428C10.3124 5.41236 10.1029 5.85502 9.83138 6.26227C9.55988 6.66952 9.23526 7.00595 8.85752 7.27154C8.48569 7.53714 8.07549 7.69355 7.62692 7.74077C7.89842 7.76437 8.14926 7.83225 8.37945 7.94439C8.61553 8.05063 8.8044 8.21884 8.94606 8.44903C9.09361 8.67331 9.16739 8.97137 9.16739 9.34321C9.16739 9.50257 9.14083 9.7239 9.08771 10.0072C9.03459 10.2905 8.96967 10.6063 8.89294 10.9545C8.81621 11.2968 8.73948 11.6421 8.66275 11.9903C8.58602 12.3327 8.5211 12.6484 8.46798 12.9376C8.41486 13.2268 8.3883 13.4541 8.3883 13.6193C8.3883 13.7079 8.39125 13.7875 8.39715 13.8584C8.40896 13.9233 8.42371 13.9705 8.44142 14H6.91866C6.88915 13.9233 6.87439 13.8052 6.87439 13.6459C6.87439 13.4924 6.898 13.2829 6.94522 13.0173C6.99834 12.7458 7.06031 12.4537 7.13114 12.1408C7.20787 11.8221 7.28164 11.5064 7.35247 11.1935C7.4233 10.8748 7.48232 10.5827 7.52954 10.3171C7.58265 10.0515 7.60921 9.84489 7.60921 9.69734C7.60921 9.24877 7.44986 8.92415 7.13114 8.72348C6.81242 8.5228 6.37271 8.42247 5.812 8.42247H2.36809L3.14717 7.90013L1.84574 14H0.367249ZM3.20914 7.59911L2.61598 7.09448H6.10416C6.65897 7.09448 7.16065 6.95283 7.60921 6.66952C8.05778 6.38622 8.41486 6.01143 8.68046 5.54516C8.94606 5.07889 9.07886 4.56835 9.07886 4.01354C9.07886 3.47054 8.92245 3.04559 8.60963 2.73867C8.29682 2.42586 7.78923 2.26945 7.08687 2.26945H3.69607L4.51943 1.41954L3.20914 7.59911Z" fill="#41197F"/>
<path d="M15.3775 2.26945L16.2363 1.41069L14.988 7.30696L14.7224 6.78461H19.7333L19.4589 8.1126H14.4479L14.926 7.59026L13.6689 13.5308L13.1642 12.672H19.4677L19.1844 14H12.0487L14.8286 0.941463H21.9644L21.6811 2.26945H15.3775Z" fill="#41197F"/>
<path d="M32.3496 9.4583C32.2375 9.98359 32.0309 10.5236 31.7299 11.0784C31.4348 11.6273 31.0453 12.1379 30.5613 12.6101C30.0832 13.0763 29.5225 13.4541 28.8792 13.7433C28.2358 14.0325 27.5128 14.1771 26.7101 14.1771C25.7835 14.1771 25.0221 13.9735 24.426 13.5662C23.8358 13.159 23.399 12.6012 23.1157 11.8929C22.8383 11.1788 22.6996 10.3672 22.6996 9.4583C22.6996 8.35459 22.8501 7.2863 23.1511 6.25342C23.458 5.22054 23.8977 4.2939 24.4702 3.4735C25.0487 2.64719 25.7451 1.99205 26.5596 1.50807C27.38 1.02409 28.3037 0.782104 29.3307 0.782104C30.2868 0.782104 31.0541 0.976876 31.6325 1.36642C32.2169 1.75006 32.6389 2.23994 32.8986 2.83606C33.1582 3.43218 33.2881 4.04601 33.2881 4.67754C33.2881 4.8369 33.2792 4.98445 33.2615 5.1202C33.2438 5.25595 33.2202 5.37695 33.1907 5.48318H31.6768C31.6945 5.39465 31.7122 5.27661 31.7299 5.12905C31.7535 4.9756 31.7653 4.83395 31.7653 4.7041C31.7653 4.23192 31.6709 3.80402 31.482 3.42038C31.2991 3.03673 31.0158 2.72982 30.6321 2.49964C30.2485 2.26945 29.7586 2.15436 29.1625 2.15436C28.3657 2.15436 27.6604 2.36684 27.0465 2.79179C26.4327 3.21675 25.9163 3.78336 25.4972 4.49162C25.0782 5.19988 24.7624 5.98782 24.5499 6.85544C24.3374 7.71716 24.2312 8.58773 24.2312 9.46715C24.2312 10.5532 24.4466 11.3824 24.8775 11.9549C25.3084 12.5274 25.9694 12.8137 26.8606 12.8137C27.3859 12.8137 27.8699 12.7192 28.3126 12.5304C28.7611 12.3356 29.1566 12.0759 29.4989 11.7513C29.8471 11.4267 30.1334 11.0666 30.3577 10.6712C30.5879 10.2698 30.7472 9.86555 30.8357 9.4583H32.3496Z" fill="#41197F"/>
<path d="M34.5652 14L37.3362 0.941463H38.8324L36.0702 14H34.5652Z" fill="#41197F"/>
<path d="M41.31 14H39.7961L42.576 0.941463H46.1527C47.0439 0.941463 47.764 1.09492 48.3129 1.40183C48.8618 1.70875 49.2632 2.1219 49.5169 2.64129C49.7766 3.15478 49.9065 3.72729 49.9065 4.35882C49.9065 5.13791 49.7766 5.84027 49.5169 6.4659C49.2572 7.08563 48.8884 7.61977 48.4103 8.06834C47.9322 8.511 47.3627 8.85038 46.7016 9.08646C46.0465 9.32255 45.3205 9.44059 44.5237 9.44059H42.2838L41.31 14ZM42.3989 8.88284L41.8854 8.1126H44.5326C45.3176 8.1126 45.9993 7.9562 46.5777 7.64338C47.1561 7.33056 47.6046 6.8938 47.9234 6.3331C48.2421 5.77239 48.4014 5.11725 48.4014 4.36767C48.4014 3.91911 48.31 3.54137 48.127 3.23446C47.9499 2.92164 47.6666 2.6826 47.2771 2.51734C46.8934 2.35208 46.3917 2.26945 45.772 2.26945H43.1249L43.9837 1.41069L42.3989 8.88284Z" fill="#41197F"/>
<path d="M54.4605 2.26945L55.3193 1.41069L54.071 7.30696L53.8054 6.78461H58.8163L58.5419 8.1126H53.5309L54.009 7.59026L52.7518 13.5308L52.2472 12.672H58.5507L58.2674 14H51.1317L53.9116 0.941463H61.0473L60.764 2.26945H54.4605Z" fill="#41197F"/>
<path d="M65.7298 14.1771C64.9802 14.1771 64.328 14.0708 63.7732 13.8584C63.2184 13.64 62.7905 13.3213 62.4895 12.9022C62.1885 12.4773 62.0379 11.952 62.0379 11.3263C62.0379 11.0371 62.0586 10.7715 62.0999 10.5295C62.1471 10.2876 62.2091 10.0072 62.2858 9.68848H63.7909C63.7142 9.9954 63.6581 10.2551 63.6227 10.4676C63.5932 10.68 63.5784 10.8896 63.5784 11.0962C63.5784 11.7218 63.7732 12.1644 64.1627 12.4241C64.5582 12.6838 65.1307 12.8137 65.8803 12.8137C66.5177 12.8137 67.0872 12.7281 67.5889 12.5569C68.0906 12.3799 68.4861 12.1113 68.7753 11.7513C69.0645 11.3854 69.2091 10.9161 69.2091 10.3436C69.2091 9.78292 68.9789 9.32255 68.5185 8.96252C68.0641 8.60248 67.4443 8.29557 66.6593 8.04178C66.0632 7.8411 65.5261 7.59321 65.048 7.2981C64.5759 6.99709 64.2011 6.63411 63.9237 6.20915C63.6522 5.7842 63.5164 5.29136 63.5164 4.73066C63.5164 4.09913 63.6374 3.53842 63.8794 3.04854C64.1273 2.55866 64.4696 2.14551 64.9064 1.80908C65.3432 1.47266 65.8507 1.21887 66.4292 1.0477C67.0076 0.870637 67.6332 0.782104 68.3061 0.782104C69.0556 0.782104 69.7049 0.888344 70.2538 1.10082C70.8086 1.3074 71.2365 1.61431 71.5375 2.02156C71.8385 2.42881 71.989 2.93345 71.989 3.53547C71.989 3.79516 71.9683 4.05486 71.927 4.31455C71.8857 4.57425 71.8326 4.84575 71.7677 5.12905H70.2538C70.3187 4.85755 70.3659 4.61557 70.3954 4.40309C70.4308 4.18471 70.4485 3.96928 70.4485 3.7568C70.4485 3.15478 70.2508 2.73572 69.8554 2.49964C69.4599 2.26355 68.8904 2.14551 68.1467 2.14551C67.5447 2.14551 67.0076 2.22519 66.5354 2.38454C66.0632 2.5439 65.6914 2.79474 65.4199 3.13707C65.1484 3.47349 65.0126 3.91321 65.0126 4.45621C65.0126 5.07593 65.2546 5.56286 65.7386 5.91699C66.2226 6.26522 66.8689 6.58099 67.6775 6.86429C68.309 7.08267 68.852 7.33942 69.3065 7.63453C69.7609 7.92964 70.1092 8.27786 70.3512 8.67921C70.5991 9.08056 70.723 9.54978 70.723 10.0869C70.723 10.9545 70.5017 11.6952 70.059 12.309C69.6222 12.917 69.0261 13.3803 68.2706 13.699C67.5211 14.0177 66.6741 14.1771 65.7298 14.1771Z" fill="#41197F"/>
<path d="M80.012 14.1976C79.3534 14.1976 78.7663 14.0945 78.2509 13.8883C77.7354 13.6764 77.3288 13.37 77.031 12.9691C76.7331 12.5682 76.5842 12.0814 76.5842 11.5086C76.5842 10.85 76.7704 10.3174 77.1426 9.91073C77.5149 9.49836 77.9989 9.18623 78.5945 8.97432C79.1901 8.75668 79.8201 8.61636 80.4845 8.55336C81.4467 8.46173 82.1025 8.38155 82.4518 8.31282C82.8069 8.23836 82.9845 8.11236 82.9845 7.93482C82.9845 7.92909 82.9845 7.92623 82.9845 7.92623C82.9845 7.9205 82.9845 7.91764 82.9845 7.91764C82.9845 7.64273 82.8384 7.41936 82.5463 7.24755C82.26 7.07573 81.8648 6.98982 81.3608 6.98982C80.8281 6.98982 80.4244 7.08718 80.1495 7.28191C79.8803 7.47091 79.7457 7.76014 79.7457 8.14959H76.7217C76.7217 7.39932 76.9279 6.76932 77.3402 6.25959C77.7583 5.74414 78.3196 5.35468 79.024 5.09123C79.7285 4.82777 80.516 4.69604 81.3865 4.69604C82.2113 4.69604 82.9759 4.81918 83.6803 5.06545C84.3905 5.31173 84.9632 5.68686 85.3985 6.19086C85.8395 6.69486 86.06 7.33632 86.06 8.11523C86.06 8.2355 86.06 8.35577 86.06 8.47605C86.06 8.59632 86.06 8.71659 86.06 8.83686V11.8609C86.06 12.1014 86.0657 12.3362 86.0772 12.5653C86.0886 12.7887 86.1201 12.9949 86.1717 13.1839C86.2347 13.39 86.312 13.5647 86.4036 13.7079C86.501 13.8511 86.5783 13.9485 86.6356 14H83.6374C83.5915 13.9542 83.5228 13.8654 83.4312 13.7337C83.3453 13.602 83.2708 13.4502 83.2078 13.2784C83.1334 13.0493 83.079 12.8288 83.0446 12.6169C83.0102 12.3992 82.993 12.1415 82.993 11.8437L83.646 12.2904C83.4856 12.6856 83.2221 13.0264 82.8556 13.3127C82.4948 13.5991 82.0681 13.8196 81.5755 13.9742C81.083 14.1231 80.5618 14.1976 80.012 14.1976ZM80.8883 11.9725C81.2434 11.9725 81.5841 11.901 81.9106 11.7578C82.237 11.6146 82.5062 11.3855 82.7181 11.0705C82.93 10.7555 83.036 10.3345 83.036 9.80764V9.1805L83.8092 9.86777C83.4312 9.9995 83.0016 10.1112 82.5205 10.2028C82.0395 10.2887 81.5698 10.3546 81.1116 10.4004C80.6248 10.452 80.2611 10.535 80.0206 10.6495C79.78 10.7641 79.6598 10.9531 79.6598 11.2165C79.6598 11.4685 79.7629 11.6575 79.969 11.7835C80.181 11.9095 80.4874 11.9725 80.8883 11.9725Z" fill="#41197F"/>
<path d="M87.8433 17.7542V4.87645H90.9102V17.7542H87.8433ZM93.6679 14.2148C92.9463 14.2148 92.2848 14.0172 91.6834 13.622C91.0878 13.2211 90.6124 12.6856 90.2573 12.0155C89.9022 11.3397 89.7247 10.5865 89.7247 9.75609C89.7247 9.73318 89.7247 9.71027 89.7247 9.68736C89.7247 9.65873 89.7247 9.63009 89.7247 9.60145L90.9102 9.57568C90.9102 9.59286 90.9102 9.61291 90.9102 9.63582C90.9102 9.653 90.9102 9.66732 90.9102 9.67877C90.9102 10.0797 91.0019 10.4262 91.1851 10.7183C91.3741 11.0046 91.6147 11.2251 91.9068 11.3798C92.2046 11.5287 92.511 11.6031 92.826 11.6031C93.3357 11.6031 93.7882 11.4256 94.1834 11.0705C94.5786 10.7154 94.7761 10.1541 94.7761 9.38668C94.7761 8.61923 94.5786 8.06655 94.1834 7.72864C93.7939 7.385 93.3415 7.21318 92.826 7.21318C92.5167 7.21318 92.2132 7.28764 91.9154 7.43654C91.6233 7.57973 91.3827 7.79164 91.1937 8.07227C91.0047 8.34718 90.9102 8.68795 90.9102 9.09459L89.7247 9.01727C89.7247 8.18109 89.9022 7.43941 90.2573 6.79223C90.6124 6.14505 91.0878 5.63532 91.6834 5.26304C92.2848 4.88504 92.9463 4.69604 93.6679 4.69604C94.4067 4.69604 95.0997 4.87645 95.7469 5.23727C96.3998 5.59809 96.9267 6.12786 97.3276 6.82659C97.7343 7.52532 97.9376 8.37868 97.9376 9.38668C97.9376 10.4462 97.74 11.334 97.3448 12.0499C96.9496 12.7658 96.4285 13.307 95.7813 13.6735C95.1341 14.0344 94.4296 14.2148 93.6679 14.2148Z" fill="#41197F"/>
<path d="M99.4041 17.7542V4.87645H102.471V17.7542H99.4041ZM105.229 14.2148C104.507 14.2148 103.846 14.0172 103.244 13.622C102.649 13.2211 102.173 12.6856 101.818 12.0155C101.463 11.3397 101.286 10.5865 101.286 9.75609C101.286 9.73318 101.286 9.71027 101.286 9.68736C101.286 9.65873 101.286 9.63009 101.286 9.60145L102.471 9.57568C102.471 9.59286 102.471 9.61291 102.471 9.63582C102.471 9.653 102.471 9.66732 102.471 9.67877C102.471 10.0797 102.563 10.4262 102.746 10.7183C102.935 11.0046 103.176 11.2251 103.468 11.3798C103.765 11.5287 104.072 11.6031 104.387 11.6031C104.897 11.6031 105.349 11.4256 105.744 11.0705C106.139 10.7154 106.337 10.1541 106.337 9.38668C106.337 8.61923 106.139 8.06655 105.744 7.72864C105.355 7.385 104.902 7.21318 104.387 7.21318C104.078 7.21318 103.774 7.28764 103.476 7.43654C103.184 7.57973 102.944 7.79164 102.755 8.07227C102.566 8.34718 102.471 8.68795 102.471 9.09459L101.286 9.01727C101.286 8.18109 101.463 7.43941 101.818 6.79223C102.173 6.14505 102.649 5.63532 103.244 5.26304C103.846 4.88504 104.507 4.69604 105.229 4.69604C105.968 4.69604 106.661 4.87645 107.308 5.23727C107.961 5.59809 108.488 6.12786 108.888 6.82659C109.295 7.52532 109.498 8.37868 109.498 9.38668C109.498 10.4462 109.301 11.334 108.906 12.0499C108.51 12.7658 107.989 13.307 107.342 13.6735C106.695 14.0344 105.99 14.2148 105.229 14.2148Z" fill="#41197F"/>
</svg>
